<?xml version="1.0" encoding="UTF-8" standalone="no"?>
<!-- Hexagonal logo only – extracted from ShadeResearch.svg -->
<svg
   xmlns="http://www.w3.org/2000/svg"
   width="256"
   height="256"
   viewBox="-3.5 -3.5 23 20"
   fill="none">
  <!-- Hex Background -->
  <path
     fill="#ecf0f1"
     d="m 3.7911348,-2.0917511 c -0.3365297,0 -0.5048145,-1.707e-4 -0.6554444,0.048779 -0.1332798,0.0433 -0.2559919,0.1143111 -0.3601318,0.208081 -0.1177099,0.1059802 -0.2017597,0.2517247 -0.3700195,0.5431644 l -4.0763672,7.0602536 c -0.1682698,0.2914 -0.2522751,0.437044 -0.2852051,0.591944 -0.02914,0.1371 -0.02914,0.278842 0,0.415942 0.03293,0.1549 0.1169353,0.300544 0.2852051,0.591943 L 0.17070023,10.558127 2.4055391,14.42883 c 0.1682598,0.2914 0.2523096,0.436944 0.3700195,0.542944 0.1041399,0.0938 0.226852,0.164562 0.3601318,0.207862 0.1506299,0.049 0.3189147,0.049 0.6554444,0.049 H 11.94343 c 0.3366,0 0.504964,1e-6 0.655664,-0.049 0.1332,-0.0433 0.255932,-0.114062 0.360132,-0.207862 0.1177,-0.106 0.20172,-0.251544 0.370019,-0.542944 l 1.427344,-2.472363 2.648804,-4.5881111 c 0.1683,-0.291399 0.252525,-0.437043 0.285425,-0.591943 0.0292,-0.1371 0.0292,-0.278842 0,-0.415942 -0.0329,-0.1549 -0.117125,-0.300544 -0.285425,-0.591944 l -4.076148,-7.0602536 c -0.168299,-0.2914397 -0.252319,-0.4371842 -0.370019,-0.5431641 -0.1042,-0.09377 -0.226932,-0.1647811 -0.360132,-0.208081 -0.1507,-0.04895 -0.319064,-0.048779 -0.655664,-0.048779 z" />
  <!-- Mountain Small -->
  <g transform="translate(-4.1322783,-5.4316681)">
    <path
       fill="#2c3e50"
       stroke="#3498db"
       stroke-width="0.0207048"
       d="m 16.44648,19.423092 c -0.256222,-0.25387 -1.169198,-1.158853 -2.028837,-2.011078 l -1.562975,-1.549496 0.105541,-0.09551 c 0.05805,-0.05253 0.244285,-0.221902 0.413859,-0.37639 0.825749,-0.752283 1.229556,-1.033405 1.508961,-1.050505 0.112122,-0.007 0.140894,7.03e-4 0.290106,0.07615 0.0911,0.04608 0.249491,0.150761 0.35198,0.232637 0.161216,0.128791 2.006069,1.954669 2.611663,2.584801 l 0.209905,0.21841 -0.700275,1.210775 c -0.385152,0.665926 -0.70788,1.213249 -0.717173,1.216272 -0.0093,0.0029 -0.226534,-0.202211 -0.482755,-0.456082 z" />
    <path
       stroke="#2c3e50"
       d="m 12.2385,15.9644 0.3684,-0.3693 c 2.372075,-2.195707 2.397941,-2.151156 4.5453,0.0363 l 1.7367,1.7567" />
  </g>
  <!-- Mountain Big -->
  <g transform="translate(-4.1322783,-5.4316681)">
    <path
       fill="#3498db"
       stroke="#3498db"
       stroke-width="0.0202049"
       d="M 7.4417145,20.163941 C 7.2800311,20.125416 7.1825665,20.024266 6.998866,19.704347 6.9427405,19.606604 6.4435768,18.741681 5.8896133,17.782299 l -1.0072065,-1.744332 0.95799,-0.960008 c 1.365778,-1.368658 1.7059389,-1.677516 2.0238587,-1.837618 0.1848198,-0.09307 0.280229,-0.103858 0.4527819,-0.05118 0.2700846,0.08246 0.6551886,0.35252 1.4659816,1.028073 0.45793,0.381547 0.970141,0.882971 5.602385,5.484415 l 0.484865,0.481641 -4.182356,-0.002 C 9.3876177,20.18019 7.4768279,20.17239 7.4417145,20.16401 Z" />
    <path
       stroke="#3498db"
       d="M 16.72402,20.39246 10.5508,14.2705 C 8.1465553,12.243803 8.1087771,12.175706 6.01792,14.2697 l -1.71493,1.72" />
  </g>
  <!-- Sun -->
  <path
     stroke="#e74c3c"
     stroke-width="1.96875"
     d="m 12.061937,3.4008 c 0,0.5436508 -0.440803,0.9843748 -0.984377,0.9843748 -0.543569,0 -0.984374,-0.440724 -0.984374,-0.9843748 0,-0.5436513 0.440805,-0.9843752 0.984374,-0.9843752 0.543574,0 0.984377,0.4407239 0.984377,0.9843752 z" />
  <!-- Hex Edge -->
  <path
     fill-opacity="0"
     stroke="#2c3e50"
     stroke-width="0.80709"
     stroke-miterlimit="2.3"
     d="m 2.9480467,-1.9952346 c -4.784528,8.2678925 -4.8877899,8.4656425 -4.8877899,8.4656425 4.8203065,8.3627551 4.8877899,8.4657451 4.8877899,8.4657451 9.5798613,-0.0099 9.7752413,0 9.7752413,0 4.827413,-8.3847021 4.887679,-8.4657451 4.887679,-8.4657451 -4.849388,-8.4209879 -4.887679,-8.4656425 -4.887679,-8.4656425 -9.612885,-0.00278 -9.7752413,0 -9.7752413,0 z" />
</svg>
