<?xml version="1.0" encoding="UTF-8" standalone="no"?>
<!-- Uploaded to: SVG Repo, www.svgrepo.com, Transformed by: SVG Repo Mixer Tools -->

<svg
   width="632.49121"
   height="157.79279"
   viewBox="-2.4 -2.4 71.15526 17.751688"
   fill="none"
   version="1.1"
   id="svg1"
   sodipodi:docname="Final.svg"
   inkscape:version="1.3 (0e150ed6c4, 2023-07-21)"
   inkscape:export-filename="Text.png"
   inkscape:export-xdpi="912.58923"
   inkscape:export-ydpi="912.58923"
   xmlns:inkscape="http://www.inkscape.org/namespaces/inkscape"
   xmlns:sodipodi="http://sodipodi.sourceforge.net/DTD/sodipodi-0.dtd"
   xmlns="http://www.w3.org/2000/svg"
   xmlns:svg="http://www.w3.org/2000/svg">
  <defs
     id="defs1" />
  <sodipodi:namedview
     id="namedview1"
     pagecolor="#ffffff"
     bordercolor="#000000"
     borderopacity="0.25"
     inkscape:showpageshadow="2"
     inkscape:pageopacity="0.0"
     inkscape:pagecheckerboard="0"
     inkscape:deskcolor="#d1d1d1"
     inkscape:zoom="1.5030947"
     inkscape:cx="143.03823"
     inkscape:cy="249.81793"
     inkscape:window-width="2560"
     inkscape:window-height="1377"
     inkscape:window-x="-8"
     inkscape:window-y="-8"
     inkscape:window-maximized="1"
     inkscape:current-layer="g14"
     showgrid="false"
     showguides="true"
     inkscape:export-bgcolor="#ffffff00">
    <inkscape:grid
       id="grid2"
       units="px"
       originx="2.703679e-07"
       originy="-1.4798302e-07"
       spacingx="0.1125"
       spacingy="0.1125"
       empcolor="#0099e5"
       empopacity="0.30196078"
       color="#0099e5"
       opacity="0.14901961"
       empspacing="5"
       dotted="false"
       gridanglex="30"
       gridanglez="30"
       visible="false" />
    <sodipodi:guide
       position="20.682873,64.20495"
       orientation="0,-1"
       id="guide2"
       inkscape:locked="false" />
  </sodipodi:namedview>
  <g
     id="SVGRepo_bgCarrier"
     stroke-width="0"
     style="display:none"
     transform="translate(-4.1322783,-5.4316681)" />
  <g
     id="SVGRepo_tracerCarrier"
     stroke-linecap="round"
     stroke-linejoin="round"
     style="display:none"
     transform="translate(-4.1322783,-5.4316681)" />
  <path
     d="m 10.367322,3.0684319 h 0.01 m 1.71,11.4600001 -5.6688003,-5.6896001 c -0.7929,-0.7958 -1.18937,-1.1937 -1.64689,-1.3428 -0.40243,-0.1311 -0.83609,-0.1312 -1.23857,-2e-4 -0.45758,0.1489 -0.85419,0.5467 -1.64742,1.3422 L 0.17071174,10.558032 m 7.93550996,-0.0253 0.3684,-0.3693 c 0.8012,-0.7955001 1.2018,-1.1933001 1.6620003,-1.3397001 0.4048,-0.1287 0.8401,-0.1252 1.2428,0.01 0.4579,0.1537 0.8521,0.5578 1.6405,1.3660001 l 1.7367,1.7567 m 0,0 2.6488,-4.5880001 c 0.1683,-0.2914 0.2524,-0.4372 0.2853,-0.5921 0.0292,-0.1371 0.0292,-0.2787 0,-0.4158 -0.0329,-0.1549 -0.117,-0.3007 -0.2853,-0.5921 l -4.0762,-7.06026 c -0.1683,-0.29144 -0.2524,-0.43716 -0.3701,-0.54314 -0.1042,-0.09377 -0.2269,-0.16461 -0.3601,-0.20791 -0.1507,-0.04895 -0.3189,-0.04895 -0.6555,-0.04895 H 3.7910817 c -0.33653,0 -0.5048,0 -0.65543,0.04895 -0.13328,0.0433 -0.25597,0.11414 -0.36011,0.20791 -0.11771,0.10598 -0.20184,0.2517 -0.3701,0.54314 l -4.07624,7.06026 c -0.16827,0.2914 -0.2524,0.4372 -0.28533,0.5921 -0.02914,0.1371 -0.02914,0.2787 0,0.4158 0.03293,0.1549 0.11706,0.3007 0.28533,0.5921 l 1.84151004,3.1896001 m 14.58591026,1.3984 -1.4274,2.4723 c -0.1683,0.2914 -0.2524,0.4371 -0.3701,0.5431 -0.1042,0.0938 -0.2269,0.1646 -0.3601,0.2079 -0.1507,0.049 -0.3189,0.049 -0.6555,0.049 H 3.7910817 c -0.33653,0 -0.5048,0 -0.65543,-0.049 -0.13328,-0.0433 -0.25597,-0.1141 -0.36011,-0.2079 -0.11771,-0.106 -0.20184,-0.2517 -0.3701,-0.5431 l -2.23472996,-3.8707 M 10.867322,3.0684319 c 0,0.27614 -0.2239,0.5 -0.5,0.5 -0.2761,0 -0.5000003,-0.22386 -0.5000003,-0.5 0,-0.27614 0.2239003,-0.5 0.5000003,-0.5 0.2761,0 0.5,0.22386 0.5,0.5 z"
     stroke="#2c3e50"
     stroke-width="1.152"
     stroke-linecap="round"
     stroke-linejoin="round"
     id="path1"
     style="display:none;stroke:#e74c3c;stroke-opacity:1"
     inkscape:label="Full" />
  <g
     id="g1"
     inkscape:label="Logo Only"
     style="display:none">
    <path
       id="path23"
       style="display:inline;fill:#ecf0f1;fill-opacity:1;stroke:none;stroke-opacity:1"
       inkscape:label="Hex Background"
       d="m 3.7911348,-2.0917511 c -0.3365297,0 -0.5048145,-1.707e-4 -0.6554444,0.048779 -0.1332798,0.0433 -0.2559919,0.1143111 -0.3601318,0.208081 -0.1177099,0.1059802 -0.2017597,0.2517247 -0.3700195,0.5431644 l -4.0763672,7.0602536 c -0.1682698,0.2914 -0.2522751,0.437044 -0.2852051,0.591944 -0.02914,0.1371 -0.02914,0.278842 0,0.415942 0.03293,0.1549 0.1169353,0.300544 0.2852051,0.591943 L 0.17070023,10.558127 2.4055391,14.42883 c 0.1682598,0.2914 0.2523096,0.436944 0.3700195,0.542944 0.1041399,0.0938 0.226852,0.164562 0.3601318,0.207862 0.1506299,0.049 0.3189147,0.049 0.6554444,0.049 H 11.94343 c 0.3366,0 0.504964,1e-6 0.655664,-0.049 0.1332,-0.0433 0.255932,-0.114062 0.360132,-0.207862 0.1177,-0.106 0.20172,-0.251544 0.370019,-0.542944 l 1.427344,-2.472363 2.648804,-4.5881111 c 0.1683,-0.291399 0.252525,-0.437043 0.285425,-0.591943 0.0292,-0.1371 0.0292,-0.278842 0,-0.415942 -0.0329,-0.1549 -0.117125,-0.300544 -0.285425,-0.591944 l -4.076148,-7.0602536 c -0.168299,-0.2914397 -0.252319,-0.4371842 -0.370019,-0.5431641 -0.1042,-0.09377 -0.226932,-0.1647811 -0.360132,-0.208081 -0.1507,-0.04895 -0.319064,-0.048779 -0.655664,-0.048779 z"
       sodipodi:insensitive="true" />
    <g
       id="g24"
       style="display:inline"
       sodipodi:insensitive="true"
       transform="translate(-4.1322783,-5.4316681)">
      <path
         style="opacity:1;fill:#2c3e50;fill-opacity:1;stroke:#3498db;stroke-width:0.0207048;stroke-opacity:1"
         d="m 16.44648,19.423092 c -0.256222,-0.25387 -1.169198,-1.158853 -2.028837,-2.011078 l -1.562975,-1.549496 0.105541,-0.09551 c 0.05805,-0.05253 0.244285,-0.221902 0.413859,-0.37639 0.825749,-0.752283 1.229556,-1.033405 1.508961,-1.050505 0.112122,-0.007 0.140894,7.03e-4 0.290106,0.07615 0.0911,0.04608 0.249491,0.150761 0.35198,0.232637 0.161216,0.128791 2.006069,1.954669 2.611663,2.584801 l 0.209905,0.21841 -0.700275,1.210775 c -0.385152,0.665926 -0.70788,1.213249 -0.717173,1.216272 -0.0093,0.0029 -0.226534,-0.202211 -0.482755,-0.456082 z"
         id="path21" />
      <path
         style="display:inline;stroke:#2c3e50;stroke-opacity:1"
         d="m 12.2385,15.9644 0.3684,-0.3693 c 2.372075,-2.195707 2.397941,-2.151156 4.5453,0.0363 l 1.7367,1.7567"
         id="path16"
         inkscape:label="Mountain Small"
         sodipodi:nodetypes="cccc" />
    </g>
    <g
       id="g23"
       style="display:inline"
       sodipodi:insensitive="true"
       transform="translate(-4.1322783,-5.4316681)">
      <path
         style="display:inline;opacity:1;fill:#3498db;fill-opacity:1;stroke:#3498db;stroke-width:0.0202049;stroke-opacity:1"
         d="M 7.4417145,20.163941 C 7.2800311,20.125416 7.1825665,20.024266 6.998866,19.704347 6.9427405,19.606604 6.4435768,18.741681 5.8896133,17.782299 l -1.0072065,-1.744332 0.95799,-0.960008 c 1.365778,-1.368658 1.7059389,-1.677516 2.0238587,-1.837618 0.1848198,-0.09307 0.280229,-0.103858 0.4527819,-0.05118 0.2700846,0.08246 0.6551886,0.35252 1.4659816,1.028073 0.45793,0.381547 0.970141,0.882971 5.602385,5.484415 l 0.484865,0.481641 -4.182356,-0.002 C 9.3876177,20.18019 7.4768279,20.17239 7.4417145,20.16401 Z"
         id="path20" />
      <path
         style="display:inline;stroke:#3498db;stroke-opacity:1"
         d="M 16.72402,20.39246 10.5508,14.2705 C 8.1465553,12.243803 8.1087771,12.175706 6.01792,14.2697 l -1.71493,1.72"
         id="path15"
         inkscape:label="Mountain Big"
         sodipodi:nodetypes="cccc" />
    </g>
    <path
       id="path18"
       style="display:none;fill:none;fill-opacity:1;stroke:#2c3e50;stroke-width:0.779716;stroke-miterlimit:2.3;stroke-dasharray:none;stroke-opacity:1"
       inkscape:label="Hex Edge"
       d="m 3.8097701,-2.0956451 c -0.3332034,0 -0.4998248,-1.69e-4 -0.6489659,0.048297 -0.1319624,0.042872 -0.2534616,0.1131814 -0.3565722,0.2060244 -0.1165464,0.1049324 -0.1997654,0.2492363 -0.3663621,0.5377954 l -4.0360755,6.9904682 c -0.1666066,0.28852 -0.2497815,0.432724 -0.2823861,0.586093 -0.028852,0.135745 -0.028852,0.276086 0,0.411831 0.032605,0.153369 0.1157795,0.297573 0.2823861,0.586092 l 1.82332623,3.1582431 2.21274927,3.832444 c 0.1665967,0.28852 0.2498157,0.432625 0.3663621,0.537577 0.1031106,0.09287 0.2246098,0.162936 0.3565722,0.205808 0.1491411,0.04851 0.3157625,0.04851 0.6489659,0.04851 h 8.0717169 c 0.333273,0 0.499973,1e-6 0.649183,-0.04851 0.131883,-0.04287 0.253402,-0.112935 0.356572,-0.205808 0.116537,-0.104952 0.199726,-0.249057 0.366362,-0.537577 l 1.413236,-2.447926 2.622622,-4.5427611 c 0.166637,-0.288519 0.250029,-0.432723 0.282604,-0.586092 0.02891,-0.135745 0.02891,-0.276086 0,-0.411831 -0.03258,-0.153369 -0.115967,-0.297573 -0.282604,-0.586093 l -4.035858,-6.9904682 c -0.166636,-0.2885591 -0.249825,-0.432863 -0.366362,-0.5377954 -0.10317,-0.092843 -0.224689,-0.1631524 -0.356572,-0.2060243 -0.14921,-0.048466 -0.31591,-0.048297 -0.649183,-0.048297 z"
       sodipodi:insensitive="true" />
    <path
       style="display:inline;stroke:#e74c3c;stroke-width:1.96875;stroke-opacity:1"
       d="m 12.061937,3.4008 c 0,0.5436508 -0.440803,0.9843748 -0.984377,0.9843748 -0.543569,0 -0.984374,-0.440724 -0.984374,-0.9843748 0,-0.5436513 0.440805,-0.9843752 0.984374,-0.9843752 0.543574,0 0.984377,0.4407239 0.984377,0.9843752 z"
       id="path19"
       inkscape:label="Sun"
       sodipodi:insensitive="true" />
    <path
       style="display:none;opacity:1;fill:none;fill-opacity:1;stroke:#3498db;stroke-width:0.1125;stroke-opacity:1"
       d="m -1.9780687,6.7258929 4.9718446,-8.7106718 9.7249281,0.099437 4.971845,8.4720228 -4.892295,8.4720241 -9.8044781,0.119324 z"
       id="path22"
       sodipodi:insensitive="true" />
    <path
       id="path24"
       style="display:inline;fill:#000000;fill-opacity:0;stroke:#2c3e50;stroke-width:0.80709;stroke-miterlimit:2.3;stroke-dasharray:none;stroke-opacity:1"
       inkscape:label="Hex Edge"
       d="m 2.9480467,-1.9952346 c -4.784528,8.2678925 -4.8877899,8.4656425 -4.8877899,8.4656425 4.8203065,8.3627551 4.8877899,8.4657451 4.8877899,8.4657451 9.5798613,-0.0099 9.7752413,0 9.7752413,0 4.827413,-8.3847021 4.887679,-8.4657451 4.887679,-8.4657451 -4.849388,-8.4209879 -4.887679,-8.4656425 -4.887679,-8.4656425 -9.612885,-0.00278 -9.7752413,0 -9.7752413,0 z"
       sodipodi:nodetypes="ccccccc"
       inkscape:export-filename="Textless"
       inkscape:export-xdpi="263.50607"
       inkscape:export-ydpi="263.50607" />
  </g>
  <g
     id="g2"
     transform="matrix(-1.0165984,-1.7000068,1.7000068,-1.0165984,26.408253,20.344616)"
     style="display:none;fill:#e74c3c;fill-opacity:1;stroke:#e74c3c;stroke-opacity:1"
     inkscape:label="Name Only">
    <text
       xml:space="preserve"
       style="font-size:1.86337px;line-height:1;font-family:'Yu Gothic UI';-inkscape-font-specification:'Yu Gothic UI, Normal';letter-spacing:0px;word-spacing:0px;white-space:pre;inline-size:7.09649;display:inline;fill:#2c3e50;fill-opacity:1;stroke:#2c3e50;stroke-width:0.0694996;stroke-miterlimit:2.3;stroke-dasharray:none;stroke-opacity:1"
       x="17.249769"
       y="0.72235835"
       id="text1"
       transform="matrix(-0.66997126,1.1099668,-1.1099668,-0.66997126,18.600731,-20.620763)"><tspan
         x="17.249769"
         y="0.72235835"
         id="tspan3"><tspan
           style="font-weight:bold;font-family:Arial;-inkscape-font-specification:Arial"
           id="tspan1">SHADE</tspan></tspan></text>
    <text
       xml:space="preserve"
       style="font-style:normal;font-variant:normal;font-weight:300;font-stretch:normal;font-size:1.66601px;font-family:'Yu Gothic UI';-inkscape-font-specification:'Yu Gothic UI, Light';font-variant-ligatures:normal;font-variant-caps:normal;font-variant-numeric:normal;font-variant-east-asian:normal;fill:#e74c3c;fill-opacity:1;stroke:#e74c3c;stroke-width:0.0846369;stroke-miterlimit:2.3;stroke-dasharray:none;stroke-opacity:1"
       x="-4.8913574"
       y="-2.8707228"
       id="text2"
       transform="rotate(120.95888)"><tspan
         sodipodi:role="line"
         id="tspan2"
         style="font-style:normal;font-variant:normal;font-weight:300;font-stretch:normal;font-size:1.66601px;font-family:'Yu Gothic UI';-inkscape-font-specification:'Yu Gothic UI, Light';font-variant-ligatures:normal;font-variant-caps:normal;font-variant-numeric:normal;font-variant-east-asian:normal;fill:#e74c3c;fill-opacity:1;stroke:#e74c3c;stroke-width:0.0846369;stroke-dasharray:none;stroke-opacity:1"
         x="-4.8913574"
         y="-2.8707228">Research</tspan></text>
  </g>
  <g
     id="g14"
     inkscape:label="Logo Only"
     style="display:inline">
    <path
       id="path6"
       style="display:inline;fill:#ecf0f1;fill-opacity:1;stroke:none;stroke-opacity:1"
       inkscape:label="Hex Background"
       d="m 3.7911348,-2.0917511 c -0.3365297,0 -0.5048145,-1.707e-4 -0.6554444,0.048779 -0.1332798,0.0433 -0.2559919,0.1143111 -0.3601318,0.208081 -0.1177099,0.1059802 -0.2017597,0.2517247 -0.3700195,0.5431644 l -4.0763672,7.0602536 c -0.1682698,0.2914 -0.2522751,0.437044 -0.2852051,0.591944 -0.02914,0.1371 -0.02914,0.278842 0,0.415942 0.03293,0.1549 0.1169353,0.300544 0.2852051,0.591943 L 0.17070023,10.558127 2.4055391,14.42883 c 0.1682598,0.2914 0.2523096,0.436944 0.3700195,0.542944 0.1041399,0.0938 0.226852,0.164562 0.3601318,0.207862 0.1506299,0.049 0.3189147,0.049 0.6554444,0.049 H 11.94343 c 0.3366,0 0.504964,1e-6 0.655664,-0.049 0.1332,-0.0433 0.255932,-0.114062 0.360132,-0.207862 0.1177,-0.106 0.20172,-0.251544 0.370019,-0.542944 l 1.427344,-2.472363 2.648804,-4.5881111 c 0.1683,-0.291399 0.252525,-0.437043 0.285425,-0.591943 0.0292,-0.1371 0.0292,-0.278842 0,-0.415942 -0.0329,-0.1549 -0.117125,-0.300544 -0.285425,-0.591944 l -4.076148,-7.0602536 c -0.168299,-0.2914397 -0.252319,-0.4371842 -0.370019,-0.5431641 -0.1042,-0.09377 -0.226932,-0.1647811 -0.360132,-0.208081 -0.1507,-0.04895 -0.319064,-0.048779 -0.655664,-0.048779 z"
       sodipodi:insensitive="true" />
    <g
       id="g8"
       style="display:inline"
       sodipodi:insensitive="true"
       transform="translate(-4.1322783,-5.4316681)">
      <path
         style="opacity:1;fill:#2c3e50;fill-opacity:1;stroke:#3498db;stroke-width:0.0207048;stroke-opacity:1"
         d="m 16.44648,19.423092 c -0.256222,-0.25387 -1.169198,-1.158853 -2.028837,-2.011078 l -1.562975,-1.549496 0.105541,-0.09551 c 0.05805,-0.05253 0.244285,-0.221902 0.413859,-0.37639 0.825749,-0.752283 1.229556,-1.033405 1.508961,-1.050505 0.112122,-0.007 0.140894,7.03e-4 0.290106,0.07615 0.0911,0.04608 0.249491,0.150761 0.35198,0.232637 0.161216,0.128791 2.006069,1.954669 2.611663,2.584801 l 0.209905,0.21841 -0.700275,1.210775 c -0.385152,0.665926 -0.70788,1.213249 -0.717173,1.216272 -0.0093,0.0029 -0.226534,-0.202211 -0.482755,-0.456082 z"
         id="path7" />
      <path
         style="display:inline;stroke:#2c3e50;stroke-opacity:1"
         d="m 12.2385,15.9644 0.3684,-0.3693 c 2.372075,-2.195707 2.397941,-2.151156 4.5453,0.0363 l 1.7367,1.7567"
         id="path8"
         inkscape:label="Mountain Small"
         sodipodi:nodetypes="cccc" />
    </g>
    <g
       id="g10"
       style="display:inline"
       sodipodi:insensitive="true"
       transform="translate(-4.1322783,-5.4316681)">
      <path
         style="display:inline;opacity:1;fill:#3498db;fill-opacity:1;stroke:#3498db;stroke-width:0.0202049;stroke-opacity:1"
         d="M 7.4417145,20.163941 C 7.2800311,20.125416 7.1825665,20.024266 6.998866,19.704347 6.9427405,19.606604 6.4435768,18.741681 5.8896133,17.782299 l -1.0072065,-1.744332 0.95799,-0.960008 c 1.365778,-1.368658 1.7059389,-1.677516 2.0238587,-1.837618 0.1848198,-0.09307 0.280229,-0.103858 0.4527819,-0.05118 0.2700846,0.08246 0.6551886,0.35252 1.4659816,1.028073 0.45793,0.381547 0.970141,0.882971 5.602385,5.484415 l 0.484865,0.481641 -4.182356,-0.002 C 9.3876177,20.18019 7.4768279,20.17239 7.4417145,20.16401 Z"
         id="path9" />
      <path
         style="display:inline;stroke:#3498db;stroke-opacity:1"
         d="M 16.72402,20.39246 10.5508,14.2705 C 8.1465553,12.243803 8.1087771,12.175706 6.01792,14.2697 l -1.71493,1.72"
         id="path10"
         inkscape:label="Mountain Big"
         sodipodi:nodetypes="cccc" />
    </g>
    <path
       id="path11"
       style="display:none;fill:none;fill-opacity:1;stroke:#2c3e50;stroke-width:0.779716;stroke-miterlimit:2.3;stroke-dasharray:none;stroke-opacity:1"
       inkscape:label="Hex Edge"
       d="m 3.8097701,-2.0956451 c -0.3332034,0 -0.4998248,-1.69e-4 -0.6489659,0.048297 -0.1319624,0.042872 -0.2534616,0.1131814 -0.3565722,0.2060244 -0.1165464,0.1049324 -0.1997654,0.2492363 -0.3663621,0.5377954 l -4.0360755,6.9904682 c -0.1666066,0.28852 -0.2497815,0.432724 -0.2823861,0.586093 -0.028852,0.135745 -0.028852,0.276086 0,0.411831 0.032605,0.153369 0.1157795,0.297573 0.2823861,0.586092 l 1.82332623,3.1582431 2.21274927,3.832444 c 0.1665967,0.28852 0.2498157,0.432625 0.3663621,0.537577 0.1031106,0.09287 0.2246098,0.162936 0.3565722,0.205808 0.1491411,0.04851 0.3157625,0.04851 0.6489659,0.04851 h 8.0717169 c 0.333273,0 0.499973,1e-6 0.649183,-0.04851 0.131883,-0.04287 0.253402,-0.112935 0.356572,-0.205808 0.116537,-0.104952 0.199726,-0.249057 0.366362,-0.537577 l 1.413236,-2.447926 2.622622,-4.5427611 c 0.166637,-0.288519 0.250029,-0.432723 0.282604,-0.586092 0.02891,-0.135745 0.02891,-0.276086 0,-0.411831 -0.03258,-0.153369 -0.115967,-0.297573 -0.282604,-0.586093 l -4.035858,-6.9904682 c -0.166636,-0.2885591 -0.249825,-0.432863 -0.366362,-0.5377954 -0.10317,-0.092843 -0.224689,-0.1631524 -0.356572,-0.2060243 -0.14921,-0.048466 -0.31591,-0.048297 -0.649183,-0.048297 z"
       sodipodi:insensitive="true" />
    <path
       style="display:inline;stroke:#e74c3c;stroke-width:1.96875;stroke-opacity:1"
       d="m 12.061937,3.4008 c 0,0.5436508 -0.440803,0.9843748 -0.984377,0.9843748 -0.543569,0 -0.984374,-0.440724 -0.984374,-0.9843748 0,-0.5436513 0.440805,-0.9843752 0.984374,-0.9843752 0.543574,0 0.984377,0.4407239 0.984377,0.9843752 z"
       id="path12"
       inkscape:label="Sun"
       sodipodi:insensitive="true" />
    <path
       style="display:none;opacity:1;fill:none;fill-opacity:1;stroke:#3498db;stroke-width:0.1125;stroke-opacity:1"
       d="m -1.9780687,6.7258929 4.9718446,-8.7106718 9.7249281,0.099437 4.971845,8.4720228 -4.892295,8.4720241 -9.8044781,0.119324 z"
       id="path13"
       sodipodi:insensitive="true" />
    <path
       id="path14"
       style="display:inline;fill:#000000;fill-opacity:0;stroke:#2c3e50;stroke-width:0.80709;stroke-miterlimit:2.3;stroke-dasharray:none;stroke-opacity:1"
       inkscape:label="Hex Edge"
       d="m 2.9480467,-1.9952346 c -4.784528,8.2678925 -4.8877899,8.4656425 -4.8877899,8.4656425 4.8203065,8.3627551 4.8877899,8.4657451 4.8877899,8.4657451 9.5798613,-0.0099 9.7752413,0 9.7752413,0 4.827413,-8.3847021 4.887679,-8.4657451 4.887679,-8.4657451 -4.849388,-8.4209879 -4.887679,-8.4656425 -4.887679,-8.4656425 -9.612885,-0.00278 -9.7752413,0 -9.7752413,0 z"
       sodipodi:nodetypes="ccccccc"
       inkscape:export-filename="Textless_large.png"
       inkscape:export-xdpi="912.58923"
       inkscape:export-ydpi="912.58923" />
    <g
       id="g6"
       transform="matrix(-1.6295504,-2.7250159,2.7250159,-1.6295504,36.373128,23.222115)"
       style="display:inline;fill:#e74c3c;fill-opacity:1;stroke:#e74c3c;stroke-opacity:1"
       inkscape:label="Banner"
       inkscape:export-filename="Name.png"
       inkscape:export-xdpi="912.58923"
       inkscape:export-ydpi="912.58923">
      <text
         xml:space="preserve"
         style="font-size:1.86337px;line-height:1;font-family:'Yu Gothic UI';-inkscape-font-specification:'Yu Gothic UI, Normal';letter-spacing:0px;word-spacing:0px;white-space:pre;inline-size:7.09649;display:inline;fill:#2c3e50;fill-opacity:1;stroke:#2c3e50;stroke-width:0.0694996;stroke-miterlimit:2.3;stroke-dasharray:none;stroke-opacity:1"
         x="17.249769"
         y="0.72235835"
         id="text5"
         transform="matrix(-0.66997126,1.1099668,-1.1099668,-0.66997126,18.600731,-20.620763)"><tspan
           x="17.249769"
           y="0.72235835"
           id="tspan5"><tspan
             style="font-weight:bold;font-family:Arial;-inkscape-font-specification:Arial"
             id="tspan4">SHADE</tspan></tspan></text>
      <text
         xml:space="preserve"
         style="font-style:normal;font-variant:normal;font-weight:300;font-stretch:normal;font-size:1.66601px;font-family:'Yu Gothic UI';-inkscape-font-specification:'Yu Gothic UI, Light';font-variant-ligatures:normal;font-variant-caps:normal;font-variant-numeric:normal;font-variant-east-asian:normal;fill:#e74c3c;fill-opacity:1;stroke:#e74c3c;stroke-width:0.0846369;stroke-miterlimit:2.3;stroke-dasharray:none;stroke-opacity:1"
         x="4.024056"
         y="-4.3567595"
         id="text6"
         transform="rotate(120.95888)"><tspan
           sodipodi:role="line"
           id="tspan6"
           style="font-style:normal;font-variant:normal;font-weight:300;font-stretch:normal;font-size:1.66601px;font-family:'Yu Gothic UI';-inkscape-font-specification:'Yu Gothic UI, Light';font-variant-ligatures:normal;font-variant-caps:normal;font-variant-numeric:normal;font-variant-east-asian:normal;fill:#e74c3c;fill-opacity:1;stroke:#e74c3c;stroke-width:0.0846369;stroke-dasharray:none;stroke-opacity:1"
           x="4.024056"
           y="-4.3567595">Research</tspan></text>
    </g>
  </g>
</svg>
